Coordinates
version=1
nRows=14
nColumns=24
inDegrees=yes

Units are S.I. units (second, meters, Newtons, ...)
Angles are in degrees.

endheader
time	pelvis_tilt	pelvis_list	pelvis_rotation	pelvis_tx	pelvis_ty	pelvis_tz	hip_flexion_r	hip_adduction_r	hip_rotation_r	knee_angle_r	ankle_angle_r	subtalar_angle_r	mtp_angle_r	hip_flexion_l	hip_adduction_l	hip_rotation_l	knee_angle_l	ankle_angle_l	subtalar_angle_l	mtp_angle_l	lumbar_extension	lumbar_bending	lumbar_rotation
      4.12500000	     -9.30616397	      2.67174346	     -8.14005740	     -0.47704602	     -0.05512458	      0.63997404	     -7.98654235	     -1.22907700	      4.84741499	    -14.27091116	     14.20493863	      2.68938336	      6.89488597	     41.22908904	     -3.21841662	    -31.88734597	    -18.59875159	      1.75228788	     22.55374032	     -9.38779192	      4.17282601	     -0.74523196	     12.32765380
      4.13000000	     -9.43006916	      3.07907164	     -8.28277745	     -0.46900300	     -0.05642066	      0.63988637	     -7.98471539	     -1.76668261	      4.91939754	    -14.92768569	     13.97032372	      2.90431130	      7.10789461	     41.24842928	     -2.90541091	    -32.08077164	    -18.87804271	      0.78572469	     21.57614671	     -8.00180321	      4.44964854	     -1.22564199	     12.42168177
      4.13500000	     -9.52194421	      3.51203228	     -8.43402613	     -0.46093686	     -0.05761830	      0.63980756	     -7.96431224	     -2.34308197	      4.93591207	    -15.66786456	     13.65940073	      3.18333183	      7.34502159	     41.25659708	     -2.57483743	    -32.15376769	    -19.26199298	     -0.15275461	     20.53242856	     -7.08025640	      4.70123903	     -1.73822308	     12.51053169
      4.14000000	     -9.60770996	      3.95550166	     -8.56307022	     -0.45291562	     -0.05875397	      0.63970389	     -7.92765434	     -2.92862967	      5.02383874	    -16.43777878	     13.31365264	      3.46987107	      7.60218097	     41.31583040	     -2.23962185	    -32.13798305	    -19.77945810	     -1.16614696	     19.39488148	     -6.37851511	      4.94142722	     -2.26420797	     12.62304532
      4.14500000	     -9.68550933	      4.44802922	     -8.56904259	     -0.44468711	     -0.05981145	      0.63947164	     -7.88667345	     -3.56942611	      4.85102441	    -17.25555117	     12.83491853	      3.81950999	      7.96760735	     41.38790215	     -1.78001243	    -32.00077099	    -20.31341966	     -2.33782163	     18.19051936	     -5.27610754	      5.21060412	     -2.86296612	     12.56026466
      4.15000000	     -9.75010292	      4.93703695	     -8.73492792	     -0.43663040	     -0.06070822	      0.63952972	     -7.77253522	     -4.19085224	      5.07666394	    -18.17908715	     12.22159748	      3.94374291	      8.14906343	     41.49577619	     -1.47724783	    -31.92972648	    -21.05977810	     -3.20302347	     17.14499917	     -5.15562479	      5.45173967	     -3.45175905	     12.69925401
      4.15500000	     -9.77496348	      5.39196950	     -8.66092241	     -0.42854809	     -0.06158875	      0.63909371	     -7.67890400	     -4.82175139	      4.73150093	    -19.19305353	     11.61920167	      4.58038089	      8.65952330	     41.63121662	     -0.98162412	    -31.40697373	    -21.82383637	     -4.22728587	     15.63851199	     -4.55212161	      5.62524416	     -4.01518410	     12.56994432
      4.16000000	     -9.79393417	      5.89068120	     -8.74986817	     -0.42043267	     -0.06227271	      0.63907171	     -7.52150429	     -5.46216893	      4.83975411	    -20.28877131	     10.79969178	      4.78254142	      8.91991911	     41.76321946	     -0.61930392	    -31.14044017	    -22.72138023	     -4.95326256	     14.52308749	     -4.47777161	      5.82937042	     -4.62885916	     12.66924496
      4.16500000	     -9.79450715	      6.31349023	     -8.60521063	     -0.41229225	     -0.06293107	      0.63859140	     -7.37697339	     -6.06750395	      4.42663434	    -21.45372007	      9.93942814	      5.47631850	      9.51083047	     41.93546135	     -0.12212697	    -30.48956530	    -23.67784494	     -5.67003698	     13.17356742	     -4.28880267	      5.97663004	     -5.17518230	     12.46983439
      4.17000000	     -9.76782388	      6.72651968	     -8.53487747	     -0.40415786	     -0.06342488	      0.63827197	     -7.19169908	     -6.65548644	      4.20749144	    -22.71567488	      8.90651454	      5.99211864	     10.05252106	     42.06921514	      0.31050857	    -29.90726079	    -24.68300633	     -6.14878495	     12.01510456	     -4.30752173	      6.10342671	     -5.71108589	     12.38842964
      4.17500000	     -9.72564591	      7.09261275	     -8.43098706	     -0.39604017	     -0.06380949	      0.63790250	     -6.97323755	     -7.20163422	      3.94989682	    -24.06835586	      7.74854043	      6.55341890	     10.61665730	     42.18146269	      0.73791251	    -29.26847223	    -25.70806882	     -6.44979674	     10.96126907	     -4.44735636	      6.19929979	     -6.20034167	     12.27446907
      4.18000000	     -9.67150867	      7.41581197	     -8.29115158	     -0.38792150	     -0.06408722	      0.63746916	     -6.72072444	     -7.71335226	      3.64191867	    -25.50025981	      6.46812375	      7.16005973	     11.21280623	     42.25743687	      1.16984181	    -28.60436074	    -26.71807469	     -6.59009885	     10.01001119	     -4.63784329	      6.27275608	     -6.64518875	     12.12628846
      4.18500000	     -9.59513152	      7.67289515	     -8.16556377	     -0.37996243	     -0.06422348	      0.63702619	     -6.41331156	     -8.16051477	      3.39455090	    -27.03892695	      5.09374592	      7.79945741	     11.73075074	     42.27447984	      1.55301611	    -27.95085504	    -27.67985066	     -6.62353736	      9.16704980	     -4.78858948	      6.28630989	     -7.01698463	     11.98953823
      4.19000000	     -9.53838879	      7.93133656	     -7.93845196	     -0.37189270	     -0.06429829	      0.63645732	     -6.06205933	     -8.62100755	      2.95853761	    -28.62272041	      3.61547227	      8.43130889	     12.30899284	     42.25566709	      2.01544960	    -27.32970698	    -28.55764297	     -6.53864406	      8.46826414	     -4.89713909	      6.32984112	     -7.39667019	     11.75711704
